# xmcd
#
# Track frame offsets:
#	150
#	12626
#	30702
#	50725
#	66030
#	91035
#	115491
#	134640
#	153699
#	177056
#	203993
#	225532
#	248092
#	266350
#	287782
#	306855
#	314459
#	336228
#
# Disc length: 4670 seconds
#
# Revision: 0
# Processed by: cddbd v1.4PL0 Copyright (c) Steve Scherf et al.
# Submitted via: audiograbber 1.80
#
DISCID=09123c12
DTITLE=Mary J. Blige - No more Drama
DYEAR=1900
DGENRE=
TTITLE0=Love
TTITLE1=Family Affair
TTITLE2=Steal away
TTITLE3=Crazy Games
TTITLE4=PMS
TTITLE5=No more Drama
TTITLE6=Keep it moving
TTITLE7=Destiny
TTITLE8=Where I've been (feat. Eve)
TTITLE9=Beautiful Day
TTITLE10=Dance for me
TTITLE11=Flying away
TTITLE12=Never been
TTITLE13=2U
TTITLE14=In the Meantime
TTITLE15=Forever no more
TTITLE16=Testimony
TTITLE17=Checkin' for me
EXTD=
EXTT0=
EXTT1=
EXTT2=
EXTT3=
EXTT4=
EXTT5=
EXTT6=
EXTT7=
EXTT8=
EXTT9=
EXTT10=
EXTT11=
EXTT12=
EXTT13=
EXTT14=
EXTT15=
EXTT16=
EXTT17=
PLAYORDER=
